<svg width="15" height="15" fill="none" xmlns="http://www.w3.org/2000/svg">
    <path fill-rule="evenodd" clip-rule="evenodd" d="M7.5 0a7.5 7.5 0 0 1 0 15 7.5 7.5 0 0 1 0-15z" fill="url(#a)"/>
    <path fill-rule="evenodd" clip-rule="evenodd" d="M9.064 7.334h1.942v3.217a5.06 5.06 0 0 1-1.531.732 6.094 6.094 0 0 1-1.731.256c-.814 0-1.546-.172-2.197-.516a3.849 3.849 0 0 1-1.53-1.437c-.37-.614-.556-1.31-.556-2.086 0-.777.185-1.472.555-2.086a3.83 3.83 0 0 1 1.542-1.437c.659-.343 1.402-.515 2.23-.515.725 0 1.376.122 1.953.366a3.764 3.764 0 0 1 1.442 1.054L9.785 6.146C9.26 5.57 8.632 5.281 7.9 5.281c-.665 0-1.202.202-1.608.605-.407.403-.61.94-.61 1.614 0 .429.092.812.277 1.148.185.337.444.6.776.788.333.189.714.283 1.143.283.422 0 .817-.085 1.187-.255v-2.13z" fill="#fff"/>
    <defs>
        <linearGradient id="a" x1="0" y1=".106" x2="0" y2="14.895" gradientUnits="userSpaceOnUse">
            <stop stop-color="#FF9990"/>
            <stop offset="1" stop-color="#FD5879"/>
        </linearGradient>
    </defs>
</svg>
